<svg width="40" height="40" fill="none" xmlns="http://www.w3.org/2000/svg"><rect width="40" height="40" rx="8" fill="url(#paint0_linear_118_2)"/><g clip-path="url(#clip0_118_2)"><mask id="a" style="mask-type:luminance" maskUnits="userSpaceOnUse" x="4" y="17" width="32" height="6"><path d="M36 17H4v6h32v-6z" fill="#fff"/></mask><g mask="url(#a)"><path d="M24.518 21.159a2.24 2.24 0 01-.746 1.303c-.405.358-.846.538-1.325.54H18.94L20.037 17h3.507c.48 0 .856.18 1.127.54.271.36.36.795.27 1.303-.067.367-.293.753-.68 1.158.238.406.324.792.257 1.158zm-1.29 0a.414.414 0 00-.068-.335.355.355 0 00-.13-.105.333.333 0 00-.16-.032h-1.51l.27-1.371h1.491a.5.5 0 00.34-.138.576.576 0 00.193-.51.356.356 0 00-.2-.264.334.334 0 00-.16-.031h-2.218l-.595 3.256h2.217a.504.504 0 00.34-.138.576.576 0 00.19-.332zm6.112 1.843h-4.837L25.6 17h4.837l-.25 1.373h-3.548l-.172.943h2.74l-.25 1.371h-2.74l-.173.944h3.547l-.25 1.37zm6.41-4.629h-1.973L32.928 23h-1.29l.846-4.629H30.51L30.76 17H36l-.25 1.373z" fill="#FFBC00"/><path d="M10.084 23.002h-1.29l.497-2.719-1.828 2.718h-.806l-.833-2.717-.497 2.718h-1.29L5.134 17h1.291l1.057 3.687L9.89 17h1.292l-1.097 6.002zm5.16 0h-4.838L11.504 17h4.838l-.251 1.372h-3.549l-.172.943h2.741l-.25 1.372h-2.742l-.172.943h3.547l-.25 1.372zm4.442 0h-4.12L16.663 17h1.29l-.846 4.63h2.83l-.25 1.372z" fill="#F9F9F9"/></g></g><defs><linearGradient id="paint0_linear_118_2" x1="20" y1="0" x2="20" y2="40" gradientUnits="userSpaceOnUse"><stop stop-color="#3F4B51"/><stop offset="1" stop-color="#2D353A"/></linearGradient><clipPath id="clip0_118_2"><path fill="#fff" transform="translate(4 17)" d="M0 0h32v6H0z"/></clipPath></defs></svg>