<svg width="40" height="40" viewBox="0 0 40 40" fill="none" xmlns="http://www.w3.org/2000/svg">
<rect width="40" height="40" rx="8" fill="url(#paint0_linear_118_2)"/>
<g clip-path="url(#clip0_118_2)">
<mask id="mask0_118_2" style="mask-type:luminance" maskUnits="userSpaceOnUse" x="4" y="17" width="32" height="6">
<path d="M36 17H4V23H36V17Z" fill="white"/>
</mask>
<g mask="url(#mask0_118_2)">
<path d="M24.518 21.1589C24.4252 21.6697 24.1764 22.104 23.7718 22.462C23.3672 22.82 22.9257 22.9998 22.4474 23.0015H18.9402L20.0371 17H23.5442C24.0245 17 24.4001 17.18 24.6711 17.5401C24.942 17.9002 25.0319 18.3346 24.9406 18.8432C24.8742 19.2097 24.6479 19.5955 24.2617 20.0008C24.4994 20.4072 24.5849 20.7933 24.518 21.1589ZM23.2279 21.1589C23.2412 21.1013 23.242 21.0413 23.2302 20.9833C23.2185 20.9254 23.1944 20.871 23.16 20.8244C23.1252 20.779 23.081 20.743 23.0307 20.7191C22.9805 20.6953 22.9257 20.6843 22.8707 20.6871H21.3602L21.6297 19.3157H23.121C23.2461 19.3151 23.3668 19.2663 23.4608 19.1784C23.5594 19.0943 23.6268 18.9758 23.6511 18.8439C23.6644 18.7863 23.6652 18.7262 23.6535 18.6683C23.6417 18.6103 23.6177 18.5559 23.5832 18.5093C23.5484 18.4641 23.5041 18.4282 23.4539 18.4044C23.4036 18.3807 23.3488 18.3698 23.2939 18.3727H21.0763L20.4813 21.6288H22.6984C22.8233 21.628 22.9437 21.5793 23.0376 21.4915C23.1358 21.4079 23.2032 21.2901 23.2279 21.1589Z" fill="#FFBC00"/>
<path d="M29.3404 23.0015H24.5028L25.6002 17H30.4372L30.1869 18.3727H26.6394L26.4665 19.3157H29.2077L28.9574 20.6871H26.2162L26.0439 21.6307H29.5913L29.3404 23.0015Z" fill="#FFBC00"/>
<path d="M35.7498 18.3727H33.7771L32.9282 23.0015H31.638L32.4845 18.372H30.5094L30.7598 17H35.9983L35.7498 18.3727Z" fill="#FFBC00"/>
<path d="M10.0839 23.0015H8.7938L9.29088 20.283L7.46344 23.0015H6.65719L5.82391 20.2842L5.32743 23.0015H4.03729L5.13412 17H6.42545L7.48205 20.6871L9.88944 17H11.1807L10.0839 23.0015Z" fill="#F9F9F9"/>
<path d="M15.2438 23.0015H10.4062L11.5042 17H16.3418L16.0908 18.372H12.5422L12.3699 19.315H15.1111L14.8601 20.6871H12.119L11.9467 21.6301H15.4941L15.2438 23.0015Z" fill="#F9F9F9"/>
<path d="M19.6863 23.0015H15.5661L16.6629 17H17.9531L17.1066 21.6301H19.9372L19.6863 23.0015Z" fill="#F9F9F9"/>
</g>
</g>
<defs>
<linearGradient id="paint0_linear_118_2" x1="20" y1="0" x2="20" y2="40" gradientUnits="userSpaceOnUse">
<stop stop-color="#3F4B51"/>
<stop offset="1" stop-color="#2D353A"/>
</linearGradient>
<clipPath id="clip0_118_2">
<rect width="32" height="6" fill="white" transform="translate(4 17)"/>
</clipPath>
</defs>
</svg>
