<svg xmlns="http://www.w3.org/2000/svg" width="204" height="35" fill="none"><path fill="#FFBC00" d="M130.6 23.8c-.6 2.9-2.1 5.3-4.7 7.4-2.6 2-5.4 3-8.5 3H95.1l7-34h22.3c3 0 5.5 1 7.2 3 1.8 2 2.3 4.5 1.7 7.4-.4 2.1-1.8 4.3-4.3 6.6 1.5 2.3 2 4.5 1.6 6.6Zm-8.2 0c.2-.8 0-1.4-.4-2-.5-.4-1-.7-1.9-.7h-9.6l1.7-7.8h9.5c.8 0 1.5-.2 2.2-.8.6-.5 1-1.1 1.2-1.9.2-.7 0-1.3-.4-1.9-.5-.5-1-.7-1.9-.7h-14.1l-3.8 18.5H119c.8 0 1.5-.3 2.2-.8.6-.5 1-1.2 1.2-2ZM161.4 34.3h-30.9l7-34.1h30.9L166.8 8h-22.6l-1.1 5.3h17.4l-1.6 7.8h-17.4l-1.1 5.4H163l-1.6 7.8ZM202.3 8h-12.6l-5.4 26.3H176L181.4 8h-12.6l1.6-7.8H204L202.3 8Z"/><path fill="#fff" d="M38.6 34.2h-8.3l3.2-15.4L22 34.2h-5.2l-5.3-15.4-3.2 15.4H0l7-34h8.2L22 21 37.3.1h8.3l-7 34.1ZM71.5 34.2H40.6l7-34h30.9L76.9 8H54.2l-1 5.3h17.4L69 21.1H51.5l-1 5.4H73l-1.6 7.7ZM99.8 34.2H73.5l7-34h8.3l-5.4 26.3h18l-1.6 7.7Z"/></svg>